<svg xmlns="http://www.w3.org/2000/svg" width="76.837" height="11.92" viewBox="0 0 76.837 11.92"><g id="icon-stars" transform="translate(-263 -2132)"><path id="Icon_ionic-ios-star" data-name="Icon ionic-ios-star" d="M14.6,7.5H10.385L9.1,3.679a.464.464,0,0,0-.871,0L6.952,7.5H2.708a.46.46,0,0,0-.458.458.337.337,0,0,0,.009.077.441.441,0,0,0,.192.324L5.915,10.8l-1.33,3.866a.46.46,0,0,0,.158.516A.443.443,0,0,0,5,15.3a.562.562,0,0,0,.287-.1l3.381-2.41,3.381,2.41a.537.537,0,0,0,.287.1.412.412,0,0,0,.255-.112.454.454,0,0,0,.158-.516L11.42,10.8l3.436-2.464.083-.072A.438.438,0,0,0,14.6,7.5Z" transform="translate(260.75 2128.625)" fill="#ffce3a"></path><path id="Icon_ionic-ios-star-2" data-name="Icon ionic-ios-star" d="M14.6,7.5H10.385L9.1,3.679a.464.464,0,0,0-.871,0L6.952,7.5H2.708a.46.46,0,0,0-.458.458.337.337,0,0,0,.009.077.441.441,0,0,0,.192.324L5.915,10.8l-1.33,3.866a.46.46,0,0,0,.158.516A.443.443,0,0,0,5,15.3a.562.562,0,0,0,.287-.1l3.381-2.41,3.381,2.41a.537.537,0,0,0,.287.1.412.412,0,0,0,.255-.112.454.454,0,0,0,.158-.516L11.42,10.8l3.436-2.464.083-.072A.438.438,0,0,0,14.6,7.5Z" transform="translate(276.75 2128.625)" fill="#ffce3a"></path><path id="Icon_ionic-ios-star-3" data-name="Icon ionic-ios-star" d="M14.6,7.5H10.385L9.1,3.679a.464.464,0,0,0-.871,0L6.952,7.5H2.708a.46.46,0,0,0-.458.458.337.337,0,0,0,.009.077.441.441,0,0,0,.192.324L5.915,10.8l-1.33,3.866a.46.46,0,0,0,.158.516A.443.443,0,0,0,5,15.3a.562.562,0,0,0,.287-.1l3.381-2.41,3.381,2.41a.537.537,0,0,0,.287.1.412.412,0,0,0,.255-.112.454.454,0,0,0,.158-.516L11.42,10.8l3.436-2.464.083-.072A.438.438,0,0,0,14.6,7.5Z" transform="translate(292.75 2128.625)" fill="#ffce3a"></path><path id="Icon_ionic-ios-star-4" data-name="Icon ionic-ios-star" d="M14.6,7.5H10.385L9.1,3.679a.464.464,0,0,0-.871,0L6.952,7.5H2.708a.46.46,0,0,0-.458.458.337.337,0,0,0,.009.077.441.441,0,0,0,.192.324L5.915,10.8l-1.33,3.866a.46.46,0,0,0,.158.516A.443.443,0,0,0,5,15.3a.562.562,0,0,0,.287-.1l3.381-2.41,3.381,2.41a.537.537,0,0,0,.287.1.412.412,0,0,0,.255-.112.454.454,0,0,0,.158-.516L11.42,10.8l3.436-2.464.083-.072A.438.438,0,0,0,14.6,7.5Z" transform="translate(308.75 2128.625)" fill="#ffce3a"></path><path id="Icon_ionic-ios-star-5" data-name="Icon ionic-ios-star" d="M14.6,7.5H10.385L9.1,3.679a.464.464,0,0,0-.871,0L6.952,7.5H2.708a.46.46,0,0,0-.458.458.337.337,0,0,0,.009.077.441.441,0,0,0,.192.324L5.915,10.8l-1.33,3.866a.46.46,0,0,0,.158.516A.443.443,0,0,0,5,15.3a.562.562,0,0,0,.287-.1l3.381-2.41,3.381,2.41a.537.537,0,0,0,.287.1.412.412,0,0,0,.255-.112.454.454,0,0,0,.158-.516L11.42,10.8l3.436-2.464.083-.072A.438.438,0,0,0,14.6,7.5Z" transform="translate(324.75 2128.625)" fill="#ffce3a"></path></g></svg>